Twisted Desire
A teenage temptress uses her sexuality to persuade a gullible ex-convict that they could live happily ever after - but only if he kills her parents first. Interesting drama based on a true story, giving Sabrina the Teenage Witch star Melissa Joan Hart a chance to prove her mettle as an actress and break away from her cutesy small-screen image. Daniel Baldwin, Isabella Hofmann, Jeremy Jordan and Meadow Sisto co-star.

TV Movie, made for NBC in 1996, thriller. Rated TV PG-15 (UK)

As the movie had never been released on DVD yet, so this WORKPRINT copy is in perfect DVD quality for you. Enjoy ;-)


Screenshot: http://img687.imageshack.us/i/f75285b9e192.png/

Format                           : AVI
Format/Info                      : Audio Video Interleave
File size                        : 813 MiB
Duration                         : 1h 25mn
Overall bit rate                 : 1 338 Kbps
Writing application              : VirtualDubMod 1.5.10.3 | www.virtualdub-fr.org || (build 2550/release)
Writing library                  : VirtualDubMod build 2550/release

Video
ID                               : 0
Format                           : MPEG-4 Visual
Format profile                   : Simple@L1
Format settings, BVOP            : No
Format settings, QPel            : No
Format settings, GMC             : No warppoints
Format settings, Matrix          : Default (H.263)
Codec ID                         : DIVX
Codec ID/Info                    : Project Mayo
Codec ID/Hint                    : DivX 4
Duration                         : 1h 25mn
Bit rate                         : 1 200 Kbps
Width                            : 704 pixels
Height                           : 576 pixels
Display aspect ratio             : 4:3
Frame rate                       : 25.000 fps
Standard                         : PAL
Color space                      : YUV
Chroma subsampling               : 4:2:0
Bit depth                        : 8 bits
Scan type                        : Progressive
Bits/(Pixel*Frame)               : 0.118
Stream size                      : 730 MiB (90%)
Writing library                  : avc2.0.11.1110

Audio
ID                               : 1
Format                           : MPEG Audio
Format version                   : Version 1
Format profile                   : Layer 3
Mode                             : Joint stereo
Mode extension                   : MS Stereo
Codec ID                         : 55
Codec ID/Hint                    : MP3
Duration                         : 1h 25mn
Bit rate mode                    : Constant
Bit rate                         : 128 Kbps
Channel(s)                       : 2 channels
Sampling rate                    : 48.0 KHz
Video delay                      : 1s 816ms
Stream size                      : 77.8 MiB (10%)
Alignment                        : Split accross interleaves
Interleave, duration             : 40 ms (1.00 video frame)
Interleave, preload duration     : 500 ms